<?xml version="1.0" encoding="UTF-8" standalone="no"?>
<!-- Generator: Adobe Illustrator 15.1.0, SVG Export Plug-In . SVG Version: 6.00 Build 0)  -->

<svg
   xmlns:dc="http://purl.org/dc/elements/1.1/"
   xmlns:cc="http://creativecommons.org/ns#"
   xmlns:rdf="http://www.w3.org/1999/02/22-rdf-syntax-ns#"
   xmlns:svg="http://www.w3.org/2000/svg"
   xmlns="http://www.w3.org/2000/svg"
   xmlns:xlink="http://www.w3.org/1999/xlink"
   xmlns:sodipodi="http://sodipodi.sourceforge.net/DTD/sodipodi-0.dtd"
   xmlns:inkscape="http://www.inkscape.org/namespaces/inkscape"
   version="1.1"
   id="Ebene_1"
   x="0px"
   y="0px"
   width="200"
   height="200"
   viewBox="0 0 200 200"
   enable-background="new 0 0 708.664 708.664"
   xml:space="preserve"
   inkscape:version="0.91 r13725"
   sodipodi:docname="HRLogoCMYK.svg"><metadata
     id="metadata17"><rdf:RDF><cc:Work
         rdf:about=""><dc:format>image/svg+xml</dc:format><dc:type
           rdf:resource="http://purl.org/dc/dcmitype/StillImage" /><dc:title></dc:title></cc:Work></rdf:RDF></metadata><defs
     id="defs15" /><sodipodi:namedview
     pagecolor="#ffffff"
     bordercolor="#666666"
     borderopacity="1"
     objecttolerance="10"
     gridtolerance="10"
     guidetolerance="10"
     inkscape:pageopacity="0"
     inkscape:pageshadow="2"
     inkscape:window-width="1366"
     inkscape:window-height="768"
     id="namedview13"
     showgrid="false"
     inkscape:zoom="2.233394"
     inkscape:cx="82.489791"
     inkscape:cy="91.323611"
     inkscape:window-x="0"
     inkscape:window-y="0"
     inkscape:window-maximized="1"
     inkscape:current-layer="Ebene_1" /><g
     id="g3"
     style="fill:#fb8c00;fill-opacity:1"
     transform="matrix(0.49161266,0,0,0.49161266,-74.628272,-73.988114)"><defs
       id="defs5"><rect
         id="SVGID_1_"
         x="171.571"
         y="162.617"
         width="367.289"
         height="382.59299" /></defs><clipPath
       id="SVGID_2_"><use
         xlink:href="#SVGID_1_"
         overflow="visible"
         id="use9"
         style="overflow:visible"
         x="0"
         y="0"
         width="100%"
         height="100%" /></clipPath><path
       clip-path="url(#SVGID_2_)"
       d="m 348.916,162.617 c 7.978,4.427 35.122,22.431 35.122,54.923 0,28.745 -46.37,114.56 -28.43,136.857 L 470.717,210.929 c 0,0 28.59,34.823 11.438,64.277 -17.823,30.609 -61.881,66.524 -79.531,93.209 -10.911,16.495 -5.606,25.338 -5.606,25.338 l 139.495,-76.4 c 0,0 11.202,33.237 -15.347,57.141 -28.018,25.229 -93.991,35.249 -93.991,61.543 l 95.809,0 c 0,0 -9.792,29.033 -28.305,33.118 -16.329,3.605 -51.27,-5.934 -67.737,8.899 -17.384,15.66 -36.938,67.155 -95.279,67.155 -39.252,0 -69.671,-28.289 -88.566,-65.463 -21.834,-42.956 -46.3,-63.631 -71.526,-68.897 0,0 13.714,-32.469 49.922,-32.469 49.774,0 71.065,81.557 108.623,81.557 10.825,0 22.317,-5.632 22.317,-21.582 0,-17.314 -24.958,-31.656 -31.905,-36.492 -16.543,-11.519 -29.733,-29.818 -21.233,-60.532 l 49.621,-178.714"
       id="path11"
       style="fill:#fb8c00;fill-opacity:1"
       inkscape:connector-curvature="0" /></g></svg>